<?xml version="1.0" encoding="utf-8"?><svg viewBox="0 0 42 26" xmlns="http://www.w3.org/2000/svg" xmlns:xlink="http://www.w3.org/1999/xlink"><style>:root>svg{display:none}:root>svg:target{display:block}</style><svg viewBox="0 0 8 14" id="arrow-next" xmlns="http://www.w3.org/2000/svg"><path fill-rule="evenodd" clip-rule="evenodd" d="M1.434 1.522L6.914 7l-5.48 5.479-.782-.782L5.35 7 .652 2.304l.782-.782z"/></svg><svg viewBox="0 0 8 14" id="arrow-prew" xmlns="http://www.w3.org/2000/svg"><path fill-rule="evenodd" clip-rule="evenodd" d="M6.566 12.478L1.086 7l5.48-5.479.782.782L2.65 7l4.697 4.696-.782.782z"/></svg><svg viewBox="0 0 42 14" id="next" xmlns="http://www.w3.org/2000/svg"><path fill-rule="evenodd" clip-rule="evenodd" d="M35.045 0l6.638 6.638-6.638 6.638-.948-.947 5.691-5.691-5.69-5.69.947-.948z"/><path fill-rule="evenodd" clip-rule="evenodd" d="M40.736 7.308H.228v-1.34h40.508v1.34z"/></svg><svg viewBox="0 0 21 26" id="play" xmlns="http://www.w3.org/2000/svg"><path d="M21 13L0 25.124V.876L21 13z"/></svg><svg viewBox="0 0 42 14" id="prev" xmlns="http://www.w3.org/2000/svg"><path fill-rule="evenodd" clip-rule="evenodd" d="M6.638 13.276L0 6.638 6.638 0l.948.948-5.69 5.69 5.69 5.69-.948.948z"/><path fill-rule="evenodd" clip-rule="evenodd" d="M.948 5.968h40.508v1.34H.948v-1.34z"/></svg></svg>